<svg width="20" height="18" viewBox="0 0 20 18" fill="none" xmlns="http://www.w3.org/2000/svg">
<g id="Group 12">
<path id="Vector" d="M17.9043 8.96651H2.09568C1.47311 8.96651 0.966492 9.47312 0.966492 10.0957C0.966492 10.7183 1.47311 11.2249 2.09568 11.2249H17.9043C18.5269 11.2249 19.0335 10.7183 19.0335 10.0957C19.0335 9.47312 18.5269 8.96651 17.9043 8.96651Z" fill="#1B1C57"/>
<path id="Vector_2" d="M18.0081 10.4864C17.8041 10.4292 17.5994 10.5451 17.5429 10.7454L17.5136 10.8485H2.48707L2.45697 10.7454C2.40051 10.5451 2.19426 10.4307 1.99175 10.4864C1.79149 10.5436 1.67631 10.7522 1.73355 10.9516L2.77088 14.5831C3.09231 15.7085 4.1342 16.4944 5.30404 16.4944H14.6951C15.8657 16.4944 16.9068 15.7085 17.2283 14.5831L18.2656 10.9516C18.3236 10.7521 18.2076 10.5436 18.0081 10.4864ZM5.30478 14.9888C4.80342 14.9888 4.35626 14.6523 4.21924 14.1698L3.73069 12.4579C3.67349 12.2577 3.78941 12.0499 3.98889 11.9927C4.19063 11.9355 4.39766 12.0522 4.45412 12.2517L4.94267 13.9635C4.98935 14.1239 5.13763 14.2368 5.30475 14.2368C5.51252 14.2368 5.68115 14.4054 5.68115 14.6132C5.68119 14.821 5.51255 14.9888 5.30478 14.9888Z" fill="#1B1C57"/>
<path id="Vector_3" d="M6.02756 15.7808C5.84163 15.6897 5.61653 15.7627 5.52242 15.9494L4.76964 17.455C4.67705 17.6409 4.75231 17.8668 4.93828 17.9601C4.99322 17.9872 5.05046 18 5.10692 18C5.24468 18 5.37718 17.924 5.44341 17.7915L6.1962 16.2859C6.28879 16.0999 6.21349 15.8741 6.02756 15.7808Z" fill="#1B1C57"/>
<path id="Vector_4" d="M15.2304 17.4557L14.4776 15.9501C14.3843 15.7634 14.1584 15.6889 13.9725 15.7815C13.7865 15.8748 13.7112 16.1007 13.8038 16.2866L14.5566 17.7922C14.6228 17.924 14.7553 18 14.8931 18C14.9496 18 15.0068 17.9872 15.0617 17.9609C15.2477 17.8675 15.323 17.6417 15.2304 17.4557Z" fill="#1B1C57"/>
<path id="Vector_5" d="M16.0863 0C15.7024 0 15.341 0.149794 15.0693 0.421575L13.8746 1.61626C13.7278 1.76305 13.7278 2.0017 13.8746 2.14849C14.0214 2.29529 14.2601 2.29529 14.4069 2.14849L15.6015 0.954552C15.7302 0.825083 15.9026 0.753556 16.0901 0.753556C16.4679 0.753556 16.7751 1.0607 16.7751 1.43858V9.3429C16.7751 9.55067 16.9437 9.71931 17.1515 9.71931C17.3593 9.71931 17.5279 9.55067 17.5286 9.34216V1.43784C17.5287 0.645154 16.8843 0 16.0863 0Z" fill="#1B1C57"/>
<path id="Vector_6" d="M14.7832 1.99265L14.0304 1.23987C13.9446 1.15406 13.8249 1.11415 13.7029 1.13447L11.821 1.44313C11.6825 1.46571 11.5688 1.56356 11.5244 1.69607C11.4799 1.82857 11.5138 1.9761 11.6117 2.07621L13.8701 4.40234C13.9416 4.47687 14.0402 4.51678 14.1396 4.51678C14.175 4.51678 14.2111 4.51152 14.2465 4.50097C14.3804 4.46183 14.4821 4.35117 14.5092 4.21415L14.8856 2.33219C14.9104 2.20946 14.872 2.08221 14.7832 1.99265Z" fill="#1B1C57"/>
<path id="Vector_7" d="M9.88931 4.56041C9.74252 4.41362 9.50387 4.41362 9.35708 4.56041L8.6043 5.31319C8.4575 5.45999 8.4575 5.69864 8.6043 5.84543C8.67808 5.91844 8.77442 5.95535 8.87079 5.95535C8.96715 5.95535 9.06349 5.91847 9.13653 5.84543L9.88931 5.09265C10.0361 4.94582 10.0361 4.70721 9.88931 4.56041Z" fill="#1B1C57"/>
<path id="Vector_8" d="M11.3949 6.06597C11.2481 5.91917 11.0094 5.91917 10.8626 6.06597L10.1099 6.81875C9.96306 6.96554 9.96306 7.20419 10.1099 7.35098C10.1836 7.42399 10.28 7.4609 10.3763 7.4609C10.4727 7.4609 10.569 7.42403 10.6421 7.35098L11.3949 6.5982C11.5417 6.45141 11.5417 6.21276 11.3949 6.06597Z" fill="#1B1C57"/>
<path id="Vector_9" d="M12.1477 3.80759C12.0009 3.6608 11.7623 3.6608 11.6155 3.80759L10.8627 4.56037C10.7159 4.70717 10.7159 4.94581 10.8627 5.09261C10.9365 5.16562 11.0328 5.20253 11.1292 5.20253C11.2256 5.20253 11.3219 5.16565 11.395 5.09261L12.1477 4.33983C12.2945 4.19303 12.2945 3.95439 12.1477 3.80759Z" fill="#1B1C57"/>
</g>
</svg>
