<svg width="16" height="16" viewBox="0 0 16 16" fill="none" xmlns="http://www.w3.org/2000/svg">
<g id="Icons">
<path id="Vector" d="M12.8 4.8H2.79998V4.4L11.6 3.696V4.4H12.8V3.2C12.8 2.32 12.0872 1.7024 11.2168 1.8264L3.18398 2.9736C2.31278 3.0984 1.59998 3.92 1.59998 4.8V12.8C1.59998 13.2244 1.76855 13.6313 2.0686 13.9314C2.36866 14.2314 2.77563 14.4 3.19998 14.4H12.8C13.2243 14.4 13.6313 14.2314 13.9313 13.9314C14.2314 13.6313 14.4 13.2244 14.4 12.8V6.4C14.4 5.97566 14.2314 5.56869 13.9313 5.26863C13.6313 4.96858 13.2243 4.8 12.8 4.8ZM11.6 10.4048C11.4423 10.4048 11.2863 10.3737 11.1406 10.3133C10.995 10.2529 10.8627 10.1644 10.7513 10.0529C10.6399 9.94143 10.5515 9.80907 10.4912 9.66341C10.4309 9.51775 10.3999 9.36164 10.4 9.204C10.4 9.04637 10.4311 8.89028 10.4915 8.74466C10.5519 8.59904 10.6403 8.46674 10.7518 8.35531C10.8634 8.24388 10.9957 8.1555 11.1414 8.09523C11.287 8.03495 11.4431 8.00395 11.6008 8.004C11.9191 8.00411 12.2244 8.13068 12.4495 8.35588C12.6745 8.58107 12.8009 8.88644 12.8008 9.2048C12.8007 9.52317 12.6741 9.82845 12.4489 10.0535C12.2237 10.2785 11.9183 10.4049 11.6 10.4048Z" fill="#0B9567"/>
</g>
</svg>
