<svg width="16" height="16" viewBox="0 0 16 16" fill="none" xmlns="http://www.w3.org/2000/svg">
<g id="Icons">
<path id="Vector" d="M13.0328 7.33125C12.7295 6.64853 12.2885 6.03575 11.7375 5.53125L11.2828 5.11406C11.2674 5.10029 11.2488 5.09051 11.2287 5.08559C11.2086 5.08067 11.1876 5.08076 11.1675 5.08585C11.1475 5.09095 11.129 5.10088 11.1137 5.11479C11.0984 5.1287 11.0867 5.14615 11.0797 5.16563L10.8766 5.74844C10.75 6.11406 10.5172 6.4875 10.1875 6.85469C10.1656 6.87813 10.1406 6.88438 10.1234 6.88594C10.1063 6.8875 10.0797 6.88438 10.0562 6.8625C10.0344 6.84375 10.0234 6.81563 10.025 6.7875C10.0828 5.84688 9.80156 4.78594 9.18594 3.63125C8.67656 2.67188 7.96875 1.92344 7.08437 1.40156L6.43906 1.02188C6.35469 0.971876 6.24688 1.0375 6.25156 1.13594L6.28594 1.88594C6.30937 2.39844 6.25 2.85156 6.10938 3.22813C5.9375 3.68906 5.69062 4.11719 5.375 4.50156C5.15535 4.76869 4.90639 5.01031 4.63281 5.22188C3.97391 5.72838 3.43815 6.3774 3.06562 7.12031C2.69402 7.86971 2.50045 8.69478 2.5 9.53125C2.5 10.2688 2.64531 10.9828 2.93281 11.6563C3.21042 12.3046 3.61103 12.8931 4.1125 13.3891C4.61875 13.8891 5.20625 14.2828 5.86094 14.5563C6.53906 14.8406 7.25781 14.9844 8 14.9844C8.74219 14.9844 9.46094 14.8406 10.1391 14.5578C10.7921 14.286 11.386 13.8895 11.8875 13.3906C12.3938 12.8906 12.7906 12.3063 13.0672 11.6578C13.3543 10.9862 13.5015 10.2632 13.5 9.53281C13.5 8.77031 13.3438 8.02969 13.0328 7.33125Z" fill="#EF4444"/>
</g>
</svg>
