<svg width="18" height="18" viewBox="0 0 18 18" fill="none" xmlns="http://www.w3.org/2000/svg">
<g id="Group">
<g id="Group_2">
<g id="Group_3">
<path id="Vector" d="M17.0913 3.75005H13.8243C13.3223 3.75005 12.9155 4.15254 12.9155 4.64971V6.98517H10.5569C10.0548 6.98517 9.64804 7.38752 9.64804 7.88473V10.2203H7.28939C6.78728 10.2203 6.38064 10.6233 6.38064 11.1199V13.568H3.90879C3.66759 13.568 3.43646 13.6627 3.26611 13.8312C3.09562 13.9999 3 14.2298 3 14.4676L3.00029 16.3499C3.00029 16.8476 3.40723 17.25 3.90904 17.25H17.0913C17.5934 17.25 18 16.8476 18 16.3499V4.64968C18.0001 4.15254 17.5934 3.75005 17.0913 3.75005Z" fill="#1B1C57"/>
<path id="Vector_2" d="M12.573 0.934023C12.3318 0.692961 11.9368 0.688328 11.6897 0.922867C7.6823 4.72916 3.86987 8.44683 0.18307 12.0412C0.0657623 12.1556 0 12.311 0 12.4722V16.6408C0 16.9767 0.279585 17.25 0.624704 17.25C0.969481 17.25 1.24956 16.9768 1.24956 16.6408V12.7243C4.87653 9.18777 8.62631 5.53351 12.5614 1.79531C12.8083 1.56081 12.8134 1.17494 12.573 0.934023Z" fill="#1B1C57"/>
</g>
</g>
</g>
</svg>
